<?xml version="1.0" encoding="utf-8"?>
<svg xmlns="http://www.w3.org/2000/svg" viewBox="355.435 116.651 16 20" width="16px" height="20px"><g id="object-3"><path d="M 357.09 116.879 C 356.657 116.992 356.379 117.151 356.162 117.364 C 355.857 117.663 355.657 118.083 355.549 118.876 C 355.436 119.693 355.435 120.775 355.435 122.327 L 355.435 130.895 C 355.823 130.629 356.261 130.427 356.734 130.303 C 356.848 130.273 356.966 130.25 357.09 130.231 L 357.09 116.879 Z" style="" id="object-0"/><path d="M 358.745 130.165 C 358.757 130.165 358.769 130.165 358.78 130.165 L 371.435 130.165 L 371.435 122.327 C 371.435 120.775 371.433 119.693 371.321 118.876 C 371.212 118.083 371.013 117.663 370.708 117.364 C 370.402 117.064 369.973 116.869 369.164 116.763 C 368.33 116.653 367.226 116.651 365.642 116.651 L 361.228 116.651 C 360.226 116.651 359.416 116.652 358.745 116.68 L 358.745 130.165 Z" style="" id="object-1"/><path d="M 358.908 131.786 C 357.829 131.786 357.451 131.793 357.162 131.869 C 356.368 132.078 355.736 132.656 355.464 133.407 C 355.481 133.789 355.507 134.126 355.549 134.426 C 355.657 135.22 355.857 135.64 356.162 135.939 C 356.467 136.238 356.896 136.433 357.706 136.54 C 358.539 136.65 359.644 136.651 361.228 136.651 L 365.642 136.651 C 367.226 136.651 368.33 136.65 369.164 136.54 C 369.973 136.433 370.402 136.238 370.708 135.939 C 371.013 135.64 371.212 135.22 371.321 134.426 C 371.412 133.76 371.43 132.917 371.434 131.786 L 358.908 131.786 Z" style="" id="object-2"/></g></svg>