<?xml version="1.0" encoding="utf-8"?>
<svg xmlns="http://www.w3.org/2000/svg" viewBox="301.7169 261.479 21.5002 21.5" width="21.5002px" height="21.5px"><g id="object-1" transform="matrix(1, 0, 0, 1, 0, -2.842170943040401e-14)"><path fill-rule="evenodd" clip-rule="evenodd" d="M 322.467 273.479 C 322.881 273.479 323.217 273.815 323.217 274.229 L 323.217 274.285 C 323.217 276.123 323.217 277.579 323.063 278.718 C 322.906 279.89 322.574 280.839 321.825 281.588 C 321.077 282.336 320.128 282.668 318.956 282.826 C 317.816 282.979 316.361 282.979 314.523 282.979 L 314.467 282.979 C 314.052 282.979 313.717 282.643 313.717 282.229 C 313.717 281.815 314.052 281.479 314.467 281.479 C 316.373 281.479 317.728 281.477 318.756 281.339 C 319.762 281.204 320.341 280.95 320.765 280.527 C 321.188 280.104 321.442 279.524 321.577 278.518 C 321.715 277.491 321.717 276.136 321.717 274.229 C 321.717 273.815 322.052 273.479 322.467 273.479 Z" style=""/><path fill-rule="evenodd" clip-rule="evenodd" d="M 302.467 273.479 C 302.881 273.479 303.217 273.815 303.217 274.229 C 303.217 276.136 303.218 277.491 303.356 278.518 C 303.492 279.524 303.745 280.104 304.168 280.527 C 304.592 280.95 305.171 281.204 306.177 281.339 C 307.205 281.477 308.56 281.479 310.467 281.479 C 310.881 281.479 311.217 281.815 311.217 282.229 C 311.217 282.643 310.881 282.979 310.467 282.979 L 310.41 282.979 C 308.572 282.979 307.117 282.979 305.977 282.826 C 304.805 282.668 303.856 282.336 303.108 281.588 C 302.359 280.839 302.027 279.89 301.87 278.718 C 301.716 277.579 301.716 276.123 301.717 274.285 C 301.717 274.267 301.717 274.248 301.717 274.229 C 301.717 273.815 302.052 273.479 302.467 273.479 Z" style=""/><path fill-rule="evenodd" clip-rule="evenodd" d="M 310.41 261.479 L 310.467 261.479 C 310.881 261.479 311.217 261.815 311.217 262.229 C 311.217 262.643 310.881 262.979 310.467 262.979 C 308.56 262.979 307.205 262.981 306.177 263.119 C 305.171 263.254 304.592 263.508 304.168 263.931 C 303.745 264.354 303.492 264.934 303.356 265.94 C 303.218 266.968 303.217 268.322 303.217 270.229 C 303.217 270.643 302.881 270.979 302.467 270.979 C 302.052 270.979 301.717 270.643 301.717 270.229 L 301.717 270.173 C 301.716 268.335 301.716 266.879 301.87 265.74 C 302.027 264.568 302.359 263.619 303.108 262.87 C 303.856 262.122 304.805 261.79 305.977 261.632 C 307.117 261.479 308.572 261.479 310.41 261.479 Z" style=""/><path fill-rule="evenodd" clip-rule="evenodd" d="M 318.756 263.119 C 317.728 262.981 316.373 262.979 314.467 262.979 C 314.052 262.979 313.717 262.643 313.717 262.229 C 313.717 261.815 314.052 261.479 314.467 261.479 C 314.485 261.479 314.504 261.479 314.523 261.479 C 316.361 261.479 317.816 261.479 318.956 261.632 C 320.128 261.79 321.077 262.122 321.825 262.87 C 322.574 263.619 322.906 264.568 323.063 265.74 C 323.217 266.879 323.217 268.335 323.217 270.173 L 323.217 270.229 C 323.217 270.643 322.881 270.979 322.467 270.979 C 322.052 270.979 321.717 270.643 321.717 270.229 C 321.717 268.322 321.715 266.968 321.577 265.94 C 321.442 264.934 321.188 264.354 320.765 263.931 C 320.341 263.508 319.762 263.254 318.756 263.119 Z" style=""/><path fill-rule="evenodd" clip-rule="evenodd" d="M 306.491 273.338 C 307.242 272.975 308.91 271.729 312.467 271.729 C 316.024 271.729 317.691 272.975 318.442 273.338 C 318.446 273.34 318.45 273.342 318.455 273.344 C 318.509 273.37 318.617 273.421 318.717 273.495 C 318.85 273.592 318.947 273.706 319.026 273.832 C 319.22 274.141 319.218 274.436 319.217 274.609 C 319.217 274.621 319.217 274.633 319.217 274.643 L 319.217 274.781 C 319.217 275.68 319.217 276.429 319.137 277.024 C 319.053 277.651 318.867 278.218 318.411 278.674 C 317.956 279.129 317.389 279.315 316.761 279.399 C 316.167 279.479 315.417 279.479 314.519 279.479 L 310.415 279.479 C 309.516 279.479 308.767 279.479 308.172 279.399 C 307.545 279.315 306.978 279.129 306.522 278.674 C 306.067 278.218 305.881 277.651 305.797 277.024 C 305.717 276.429 305.717 275.68 305.717 274.781 C 305.717 274.764 305.717 274.746 305.717 274.729 L 305.717 274.643 C 305.717 274.633 305.717 274.621 305.717 274.609 C 305.716 274.436 305.714 274.141 305.908 273.832 C 305.987 273.706 306.084 273.592 306.216 273.495 C 306.317 273.421 306.425 273.37 306.479 273.344 C 306.483 273.342 306.487 273.34 306.491 273.338 Z" style=""/><path d="M 316.761 265.059 C 316.166 264.979 315.417 264.979 314.519 264.979 L 310.415 264.979 C 309.516 264.979 308.767 264.979 308.172 265.059 C 307.544 265.143 306.977 265.329 306.522 265.785 C 306.066 266.24 305.881 266.807 305.796 267.435 C 305.716 268.029 305.716 268.779 305.717 269.677 L 305.717 269.963 C 305.523 270.087 305.358 270.204 305.221 270.308 C 305.061 270.429 304.939 270.533 304.854 270.61 C 304.812 270.648 304.778 270.68 304.754 270.704 C 304.741 270.716 304.731 270.726 304.724 270.734 L 304.714 270.744 L 304.71 270.748 L 304.708 270.75 L 304.707 270.751 C 304.397 271.078 304.385 271.62 304.68 271.963 C 304.974 272.304 305.461 272.319 305.771 271.997 L 305.779 271.989 C 305.789 271.979 305.807 271.962 305.833 271.938 C 305.886 271.89 305.974 271.815 306.096 271.722 C 306.341 271.536 306.728 271.277 307.268 271.014 C 308.346 270.489 310.046 269.943 312.467 269.943 C 314.887 269.943 316.587 270.489 317.665 271.014 C 318.205 271.277 318.592 271.536 318.837 271.722 C 318.959 271.815 319.047 271.89 319.1 271.938 C 319.126 271.962 319.144 271.979 319.154 271.989 L 319.162 271.997 C 319.472 272.319 319.959 272.304 320.253 271.963 C 320.548 271.62 320.536 271.078 320.226 270.751 L 320.179 270.704 C 320.155 270.68 320.121 270.648 320.079 270.61 C 319.994 270.533 319.872 270.429 319.712 270.308 C 319.575 270.204 319.41 270.087 319.217 269.963 L 319.217 269.677 C 319.217 268.779 319.217 268.029 319.137 267.435 C 319.052 266.807 318.867 266.24 318.411 265.785 C 317.956 265.329 317.389 265.143 316.761 265.059 Z" style=""/></g></svg>