<?xml version="1.0" encoding="utf-8"?>
<svg xmlns="http://www.w3.org/2000/svg" viewBox="164.801 287.687 20 16" width="20px" height="16px"><g id="object-0"><path d="M 172.551 295.687 C 172.551 294.444 173.559 293.437 174.801 293.437 C 176.044 293.437 177.051 294.444 177.051 295.687 C 177.051 296.929 176.044 297.937 174.801 297.937 C 173.559 297.937 172.551 296.929 172.551 295.687 Z" style=""/><path fill-rule="evenodd" clip-rule="evenodd" d="M 164.801 295.687 C 164.801 297.326 165.226 297.878 166.076 298.982 C 167.773 301.187 170.619 303.687 174.801 303.687 C 178.983 303.687 181.829 301.187 183.526 298.982 C 184.376 297.878 184.801 297.326 184.801 295.687 C 184.801 294.047 184.376 293.495 183.526 292.391 C 181.829 290.186 178.983 287.687 174.801 287.687 C 170.619 287.687 167.773 290.186 166.076 292.391 C 165.226 293.495 164.801 294.047 164.801 295.687 Z M 174.801 291.937 C 172.73 291.937 171.051 293.616 171.051 295.687 C 171.051 297.758 172.73 299.437 174.801 299.437 C 176.872 299.437 178.551 297.758 178.551 295.687 C 178.551 293.616 176.872 291.937 174.801 291.937 Z" style=""/></g></svg>