<?xml version="1.0" encoding="utf-8"?>
<svg xmlns="http://www.w3.org/2000/svg" viewBox="258.627 38.4 107.9361 123.7" width="107.936px" height="123.7px" preserveAspectRatio="none"><path d="M 366.127 69.7 L 366.427 69.5 C 365.827 68.4 364.927 67.4 364.027 66.9 L 315.727 39.1 C 314.927 38.6 313.827 38.4 312.627 38.4 C 311.427 38.4 310.327 38.7 309.527 39.1 L 261.527 67 C 259.827 68 258.627 70.5 258.627 72.4 L 258.627 128.1 C 258.627 129.2 258.827 130.4 259.527 131.5 L 259.327 131.6 C 259.827 132.4 260.527 133.1 261.227 133.5 L 309.427 161.4 C 310.227 161.9 311.327 162.1 312.527 162.1 C 313.727 162.1 314.827 161.8 315.627 161.4 L 363.627 133.5 C 365.327 132.5 366.527 130 366.527 128.1 L 366.527 72.3 C 366.627 71.5 366.527 70.6 366.127 69.7 Z M 312.627 124.7 C 321.727 124.7 329.727 119.7 333.927 112.3 L 346.827 119.9 C 340.027 131.7 327.227 139.7 312.627 139.7 C 290.827 139.7 273.127 122 273.127 100.2 C 273.127 78.4 290.827 60.7 312.627 60.7 C 327.327 60.7 340.127 68.8 346.927 80.7 L 333.927 88.2 C 329.727 80.7 321.727 75.7 312.627 75.7 C 299.127 75.7 288.127 86.7 288.127 100.2 C 288.127 113.7 299.127 124.7 312.627 124.7 Z" style="" id="object-3" transform="matrix(1, 0, 0, 1, -2.842170943040401e-14, 0)"/></svg>