<?xml version="1.0" encoding="utf-8"?>
<svg xmlns="http://www.w3.org/2000/svg" viewBox="202.418 54.972 113.527 127.7575" width="113.527px" height="127.757px" preserveAspectRatio="none"><path d="M 259.181 54.972 C 257.399 54.972 255.617 55.362 254.265 56.144 L 207.332 83.242 C 204.628 84.8 202.418 88.632 202.418 91.752 L 202.418 145.949 C 202.418 147.511 202.968 149.247 203.859 150.79 L 203.857 150.792 C 204.747 152.335 205.98 153.682 207.332 154.464 L 254.263 181.558 C 256.966 183.12 261.393 183.12 264.095 181.558 L 264.097 181.558 L 311.031 154.464 C 312.383 153.684 313.613 152.335 314.504 150.792 C 315.394 149.249 315.945 147.512 315.945 145.949 L 315.945 91.751 C 315.945 90.194 315.395 88.456 314.504 86.913 L 314.504 86.911 C 313.613 85.366 312.383 84.018 311.031 83.241 L 264.097 56.145 C 262.746 55.362 260.964 54.972 259.181 54.972 Z M 259.183 81.005 C 272.648 81.005 285.203 88.251 291.953 99.915 L 275.573 109.394 C 272.201 103.558 265.913 99.927 259.183 99.927 C 248.751 99.927 240.261 108.417 240.261 118.851 C 240.261 129.285 248.751 137.772 259.183 137.772 C 265.918 137.772 272.198 134.147 275.578 128.307 L 291.953 137.784 C 285.207 149.446 272.648 156.694 259.183 156.694 C 238.316 156.694 221.34 139.717 221.34 118.85 C 221.34 97.983 238.316 81.006 259.183 81.006 L 259.183 81.004 L 259.183 81.005 Z M 288.619 112.542 L 292.82 112.542 L 292.82 116.749 L 297.023 116.749 L 297.023 120.952 L 292.82 120.952 L 292.82 125.159 L 288.619 125.159 L 288.619 120.952 L 284.412 120.952 L 284.412 116.749 L 288.619 116.749 L 288.619 112.542 Z M 304.384 112.542 L 308.592 112.542 L 308.592 116.749 L 312.795 116.749 L 312.795 120.952 L 308.592 120.952 L 308.592 125.159 L 304.384 125.159 L 304.384 120.952 L 300.179 120.952 L 300.179 116.749 L 304.384 116.749 L 304.384 112.542 Z" style="" id="object-0" transform="matrix(1, 0, 0, 1, 0, 3.552713678800501e-15)"/></svg>