<?xml version="1.0" encoding="utf-8"?>
<svg xmlns="http://www.w3.org/2000/svg" viewBox="48.701 289.468 107.9361 123.7" width="107.936px" height="123.7px" preserveAspectRatio="none"><path d="M 156.201 320.768 L 156.501 320.568 C 155.901 319.468 155.001 318.468 154.101 317.968 L 105.801 290.168 C 105.001 289.668 103.901 289.468 102.701 289.468 C 101.501 289.468 100.401 289.768 99.601 290.168 L 51.601 318.068 C 49.901 319.068 48.701 321.568 48.701 323.468 L 48.701 379.168 C 48.701 380.268 48.901 381.468 49.601 382.568 L 49.401 382.668 C 49.901 383.468 50.601 384.168 51.301 384.568 L 99.501 412.468 C 100.301 412.968 101.401 413.168 102.601 413.168 C 103.801 413.168 104.901 412.868 105.701 412.468 L 153.701 384.568 C 155.401 383.568 156.601 381.068 156.601 379.168 L 156.601 323.368 C 156.701 322.568 156.601 321.668 156.201 320.768 Z M 102.701 390.768 C 80.901 390.768 63.201 373.068 63.201 351.268 C 63.201 329.468 80.901 311.768 102.701 311.768 C 117.401 311.768 130.201 319.868 137.001 331.768 L 124.001 339.268 C 119.801 331.768 111.801 326.768 102.701 326.768 C 89.201 326.768 78.201 337.768 78.201 351.268 C 78.201 364.768 89.201 375.768 102.701 375.768 C 111.801 375.768 119.801 370.768 124.001 363.368 L 136.901 370.968 C 130.101 382.768 117.301 390.768 102.701 390.768 Z M 153.701 349.268 L 150.501 349.268 L 149.601 353.268 L 153.701 353.268 L 153.701 358.268 L 148.701 358.268 L 147.501 364.268 L 142.601 364.268 L 143.801 358.268 L 140.001 358.268 L 138.801 364.268 L 134.001 364.268 L 135.201 358.268 L 132.701 358.268 L 132.701 353.268 L 136.201 353.268 L 137.101 349.268 L 132.701 349.268 L 132.701 344.268 L 138.001 344.268 L 139.201 338.268 L 144.101 338.268 L 142.901 344.268 L 146.701 344.268 L 147.901 338.268 L 152.701 338.268 L 151.501 344.268 L 153.701 344.268 L 153.701 349.268 Z M 141.001 353.268 L 144.801 353.268 L 145.701 349.268 L 141.901 349.268 L 141.001 353.268 Z" style="" id="object-2" transform="matrix(1, 0, 0, 1, -2.842170943040401e-14, 0)"/></svg>