<?xml version="1.0" encoding="utf-8"?>
<svg xmlns="http://www.w3.org/2000/svg" viewBox="203.3337 95.7195 126.2356 126.234" width="126.236px" height="126.234px" preserveAspectRatio="none"><path d="M 327.188 153.214 L 272.072 98.1 C 268.9 94.926 263.752 94.926 260.575 98.1 L 249.131 109.546 L 263.649 124.064 C 267.024 122.925 270.892 123.689 273.581 126.378 C 276.284 129.084 277.042 132.985 275.875 136.371 L 289.867 150.364 C 293.252 149.197 297.159 149.951 299.861 152.659 C 303.641 156.436 303.641 162.559 299.861 166.338 C 296.083 170.117 289.956 170.117 286.178 166.338 C 283.419 163.576 282.588 159.427 284.073 155.817 L 271.025 142.769 L 271.023 177.11 C 271.97 177.576 272.834 178.193 273.582 178.938 C 277.36 182.715 277.36 188.836 273.582 192.621 C 269.803 196.398 263.678 196.398 259.903 192.621 C 256.125 188.837 256.125 182.716 259.903 178.938 C 260.808 178.031 261.885 177.314 263.07 176.828 L 263.07 142.169 C 261.884 141.684 260.807 140.966 259.903 140.058 C 257.041 137.198 256.352 132.998 257.82 129.482 L 243.507 115.169 L 205.715 152.959 C 202.54 156.135 202.54 161.283 205.715 164.459 L 260.832 219.573 C 264.006 222.747 269.152 222.747 272.331 219.573 L 327.189 164.715 C 330.363 161.538 330.363 156.39 327.188 153.214 L 327.188 153.214 Z" style="" id="object-0" transform="matrix(1, 0, 0, 1, 0, 3.552713678800501e-15)"/></svg>