<?xml version="1.0" encoding="utf-8"?>
<svg xmlns="http://www.w3.org/2000/svg" viewBox="50.069 78.161 125 125" width="125px" height="125px"><path d="M 50.069 78.161 L 50.069 203.161 L 175.069 203.161 L 175.069 78.161 L 50.069 78.161 Z M 116.188 184.674 C 114.343 188.423 110.821 190.886 106.74 192.075 C 100.469 193.515 94.471 192.694 90.009 190.016 C 87.023 188.184 84.691 185.364 83.108 182.115 L 92.628 176.285 C 92.711 176.32 92.961 176.772 93.295 177.356 C 94.509 179.39 95.556 180.83 97.614 181.841 C 99.636 182.531 104.075 182.972 105.789 179.414 C 106.836 177.604 106.503 171.786 106.503 165.349 C 106.502 155.234 106.549 145.161 106.549 135.161 L 118.258 135.161 C 118.258 146.161 118.318 156.579 118.258 167.313 C 118.283 173.893 118.854 179.759 116.188 184.674 Z M 164.762 181.366 C 160.692 195.288 138 195.74 128.932 186.542 C 127.016 184.377 125.815 183.246 124.672 180.747 C 129.491 177.975 129.491 177.975 134.18 175.262 C 136.727 179.177 139.082 181.33 143.319 182.211 C 149.067 182.913 154.85 180.938 153.553 174.833 C 152.22 169.847 141.783 168.634 134.68 163.302 C 127.469 158.459 125.779 146.691 131.705 139.967 C 133.68 137.48 137.048 135.624 140.582 134.732 L 144.27 134.255 C 151.351 134.112 155.777 135.982 159.026 139.61 C 159.93 140.526 160.668 141.514 162.048 143.655 C 158.276 146.059 158.288 146.036 152.885 149.534 C 151.731 147.048 149.816 145.488 147.792 144.81 C 144.65 143.858 140.688 144.893 139.866 148.213 C 139.581 149.236 139.64 150.188 140.093 151.878 C 141.366 154.781 145.638 156.043 149.47 157.804 C 160.501 162.278 164.226 167.075 165.142 172.785 C 166.024 177.701 164.929 180.89 164.762 181.366 Z" style="" id="object-0" transform="matrix(1, 0, 0, 1, 0, 3.552713678800501e-15)"/></svg>