<?xml version="1.0" encoding="utf-8"?>
<svg xmlns="http://www.w3.org/2000/svg" viewBox="45.6418 62.8252 127.7952 125.3798" width="127.795px" height="125.38px" preserveAspectRatio="none"><path d="M 163.331 159.86 C 156.358 159.669 151.034 160.321 146.479 162.239 C 145.186 162.786 143.124 162.798 142.913 164.419 C 143.624 165.165 143.733 166.278 144.3 167.196 C 145.386 168.95 147.222 171.309 148.859 172.548 C 150.648 173.896 152.492 175.341 154.41 176.509 C 157.824 178.591 161.633 179.779 164.914 181.861 C 166.852 183.091 168.773 184.638 170.664 186.025 C 171.598 186.709 172.227 187.775 173.437 188.205 L 173.437 188.01 C 172.8 187.198 172.636 186.08 172.05 185.233 L 169.472 182.655 C 166.952 179.311 163.753 176.374 160.355 173.936 C 157.644 171.987 151.574 169.358 150.445 166.206 L 150.246 166.007 C 152.168 165.788 154.418 165.093 156.195 164.616 C 159.175 163.819 161.84 164.026 164.914 163.229 L 169.078 162.042 L 169.078 161.249 C 167.523 159.655 166.414 157.542 164.719 156.097 C 160.278 152.316 155.434 148.542 150.446 145.394 C 147.68 143.648 144.262 142.511 141.329 141.031 C 140.341 140.535 138.61 140.273 137.958 139.445 C 136.419 137.484 135.579 134.996 134.392 132.707 C 131.904 127.914 129.462 122.684 127.255 117.641 C 125.751 114.204 124.771 110.813 122.896 107.731 C 113.896 92.934 104.209 84.001 89.201 75.223 C 86.006 73.356 82.162 72.618 78.099 71.653 L 71.556 71.258 C 70.224 70.703 68.841 69.074 67.591 68.281 C 62.62 65.138 49.866 58.306 46.182 67.29 C 43.858 72.958 49.659 78.489 51.733 81.364 C 53.19 83.376 55.053 85.637 56.092 87.903 C 56.78 89.395 56.897 90.887 57.483 92.462 C 58.921 96.345 60.178 100.571 62.042 104.157 C 62.983 105.973 64.022 107.884 65.214 109.509 C 65.941 110.505 67.194 110.947 67.394 112.482 C 66.167 114.197 66.097 116.857 65.41 119.025 C 62.312 128.795 63.484 140.935 67.988 148.162 C 69.371 150.385 72.629 155.142 77.105 153.318 C 81.023 151.72 80.148 146.779 81.269 142.416 C 81.523 141.428 81.367 140.701 81.863 140.037 L 81.863 140.236 L 85.433 147.369 C 88.074 151.623 92.757 156.068 96.73 159.068 C 98.789 160.623 100.41 163.31 103.074 164.22 L 103.074 164.021 L 102.875 164.021 C 102.359 163.216 101.551 162.884 100.895 162.24 C 99.344 160.717 97.618 158.826 96.336 157.084 C 92.723 152.182 89.531 146.814 86.625 141.229 C 85.234 138.561 84.027 135.62 82.855 132.905 C 82.402 131.858 82.41 130.272 81.468 129.733 C 80.187 131.721 78.296 133.331 77.304 135.678 C 75.722 139.432 75.515 144.014 74.929 148.76 C 74.581 148.885 74.734 148.799 74.531 148.959 C 71.769 148.291 70.801 145.451 69.773 143.01 C 67.179 136.846 66.695 126.92 68.98 119.819 C 69.57 117.983 72.242 112.202 71.16 110.503 C 70.644 108.812 68.941 107.831 67.988 106.538 C 66.808 104.94 65.633 102.835 64.816 100.987 C 62.691 96.182 61.703 90.784 59.464 85.925 C 58.394 83.601 56.589 81.249 55.105 79.187 C 53.46 76.898 51.621 75.21 50.347 72.445 C 49.894 71.461 49.281 69.886 49.949 68.879 C 50.164 68.195 50.465 67.91 51.14 67.688 C 52.288 66.801 55.492 67.985 56.687 68.481 C 59.867 69.801 62.519 71.059 65.214 72.844 C 66.503 73.699 67.812 75.356 69.374 75.817 L 71.159 75.817 C 73.948 76.458 77.073 76.012 79.682 76.805 C 84.291 78.207 88.42 80.387 92.17 82.754 C 103.592 89.969 112.936 100.234 119.326 112.488 C 120.353 114.461 120.799 116.34 121.705 118.433 C 123.529 122.652 125.83 126.992 127.646 131.121 C 129.462 135.234 131.228 139.391 133.794 142.816 C 135.142 144.617 140.345 145.582 142.712 146.582 C 144.372 147.281 147.091 148.012 148.661 148.961 C 151.661 150.77 154.567 152.926 157.384 154.906 C 158.786 155.898 163.114 158.074 163.329 159.863 L 163.331 159.86 Z M 74.726 84.34 C 73.273 84.313 72.246 84.496 71.16 84.735 L 71.16 84.934 L 71.355 84.934 C 72.05 86.356 73.273 87.274 74.132 88.5 L 76.112 92.664 L 76.311 92.469 C 77.538 91.602 78.1 90.219 78.092 88.106 C 77.6 87.586 77.53 86.942 77.1 86.321 C 76.538 85.497 75.44 85.032 74.725 84.341 L 74.726 84.34 Z M 74.726 84.34" style="" id="object-1" transform="matrix(1, 0, 0, 1, 0, 3.552713678800501e-15)"/></svg>