<?xml version="1.0" encoding="utf-8"?>
<svg xmlns="http://www.w3.org/2000/svg" viewBox="242.2854 120.0669 121.034 122.3708" width="121.034px" height="122.371px" preserveAspectRatio="none"><path d="M 288.132 179.252 L 317.291 179.252 C 325.408 179.252 331.802 172.384 331.802 164.233 L 331.802 136.435 C 331.802 128.523 325.17 122.579 317.247 121.259 C 312.233 120.424 307.052 120.044 302.06 120.068 C 297.07 120.091 292.448 120.516 288.255 121.259 C 275.9 123.44 273.802 128.01 273.802 136.435 L 273.802 147.252 L 302.802 147.252 L 302.802 151.252 L 262.578 151.252 C 254.094 151.252 246.664 156.36 244.341 166.063 C 241.66 177.183 241.541 183.982 244.341 195.593 C 246.416 204.235 251.371 210.252 259.856 210.252 L 269.802 210.252 L 269.802 197.204 C 269.802 187.567 278.23 179.252 288.132 179.252 Z M 286.294 140.142 C 283.268 140.142 280.816 137.663 280.816 134.597 C 280.816 131.518 283.267 129.016 286.294 129.016 C 289.309 129.016 291.773 131.518 291.773 134.597 C 291.772 137.663 289.308 140.142 286.294 140.142 Z M 361.083 166.063 C 358.985 157.615 354.98 151.252 346.484 151.252 L 335.802 151.252 L 335.802 164.233 C 335.802 174.283 327.008 182.252 317.291 182.252 L 288.132 182.252 C 280.144 182.252 273.802 189.578 273.802 197.578 L 273.802 225.378 C 273.802 233.288 280.547 237.942 288.264 240.212 C 297.506 242.929 306.258 243.42 317.315 240.212 C 324.664 238.083 331.802 233.801 331.802 225.378 L 331.802 214.252 L 302.802 214.252 L 302.802 210.252 L 346.484 210.252 C 354.968 210.252 358.131 204.476 361.083 195.592 C 364.13 186.447 363.999 177.793 361.083 166.063 L 361.083 166.063 Z M 319.128 221.669 C 322.155 221.669 324.607 224.148 324.607 227.216 C 324.607 230.292 322.156 232.795 319.128 232.795 C 316.113 232.795 313.65 230.293 313.65 227.216 C 313.65 224.148 316.113 221.669 319.128 221.669 Z" style="" id="object-0" transform="matrix(1, 0, 0, 1, 0, 3.552713678800501e-15)"/></svg>