<?xml version="1.0" encoding="utf-8"?>
<svg xmlns="http://www.w3.org/2000/svg" viewBox="69.8474 275.376 116.9456 128.0002" width="116.946px" height="128px" preserveAspectRatio="none"><path d="M 117.255 275.376 L 117.255 275.378 C 116.829 275.32 109.949 277.798 105.513 279.601 C 99.525 282.041 94.877 284.367 92.009 286.381 C 91.083 287.038 89.955 288.131 89.534 288.751 L 89.527 288.73 C 89.502 288.778 89.479 288.827 89.458 288.878 C 89.436 288.918 89.406 288.964 89.392 288.998 C 89.313 289.209 89.274 289.433 89.277 289.658 L 89.341 289.718 C 89.358 289.925 89.406 290.158 89.509 290.413 C 89.761 291.033 90.497 291.789 91.331 292.563 C 91.331 292.563 99.952 300.972 100.999 302.173 C 105.765 307.676 107.839 313.1 108.033 320.579 C 108.15 325.384 107.237 329.609 104.97 334.511 C 100.94 343.307 92.435 353.015 79.318 363.787 L 79.517 363.72 C 79.427 363.792 79.309 363.894 79.222 363.962 C 77.652 365.202 75.326 367.527 74.144 369 C 72.38 371.209 70.987 373.553 70.386 375.355 C 69.32 378.61 69.843 381.903 71.896 384.945 C 74.532 388.82 79.783 392.775 85.906 395.466 C 89.026 396.843 94.274 398.606 98.228 399.593 C 104.795 401.26 117.508 403.062 124.501 403.332 C 125.915 403.391 127.813 403.391 127.891 403.332 C 128.046 403.235 129.132 401.164 130.392 398.588 C 134.692 389.81 137.791 381.575 139.478 374.541 C 140.485 370.279 141.279 364.601 141.802 357.878 C 141.938 355.998 141.996 349.701 141.88 347.57 C 141.705 344.083 141.397 341.254 140.912 338.484 C 140.876 338.295 140.852 338.103 140.842 337.911 C 156.42 333.283 173.61 329.09 185.029 327.343 L 186.793 327.072 L 186.521 326.644 C 184.971 324.241 183.906 322.75 182.627 321.161 C 178.907 316.551 174.394 312.812 168.871 309.712 C 161.276 305.468 151.452 302.155 139.013 299.694 C 136.669 299.229 131.518 298.337 127.333 297.698 L 126.943 296.999 C 124.656 292.969 122.138 287.972 120.665 284.601 C 119.523 281.985 118.437 278.962 117.837 276.792 C 117.507 275.474 117.47 275.396 117.255 275.376 Z M 116.945 276.364 L 116.965 276.364 C 116.983 276.384 117.06 276.928 117.138 277.567 C 117.468 280.279 118.069 282.895 119.019 285.724 C 119.735 287.854 119.735 287.739 118.902 287.487 C 116.926 286.945 108.072 285.415 101.658 284.523 C 100.631 284.388 99.759 284.252 99.759 284.232 C 99.682 284.154 104.389 281.695 106.462 280.726 C 109.116 279.506 116.402 276.461 116.945 276.364 L 116.945 276.364 Z M 98.267 285.046 L 99.023 285.298 C 103.131 286.693 113.457 288.671 119.153 289.136 C 119.793 289.194 120.335 289.251 120.353 289.251 C 120.373 289.271 119.833 289.561 119.134 289.89 C 116.384 291.266 113.359 292.951 111.267 294.25 C 110.791 294.546 110.355 294.796 110.14 294.898 C 109.496 294.793 108.852 294.688 108.208 294.583 L 106.384 292.796 C 104.028 290.501 101.658 288.221 99.274 285.956 L 98.267 285.046 Z M 97.492 285.648 L 100.224 289.058 C 101.716 290.938 103.227 292.778 103.556 293.185 C 103.847 293.544 104.059 293.807 104.099 293.885 C 102.164 293.548 100.093 293.177 98.499 292.833 C 97.336 292.581 95.109 292.058 93.365 291.458 C 93.185 291.388 92.98 291.312 92.785 291.239 L 92.785 291.034 C 92.805 289.734 94.451 287.796 97.24 285.821 L 97.492 285.648 Z M 120.665 290.294 C 120.68 290.287 120.695 290.288 120.705 290.298 C 120.782 290.298 120.877 290.47 121.109 290.993 C 121.769 292.446 123.824 296.36 124.328 297.116 L 124.392 297.22 C 120.731 296.64 117.072 296.044 113.415 295.43 C 113.533 295.343 113.658 295.266 113.787 295.198 C 115.822 294.074 117.875 292.641 119.697 291.11 C 120.142 290.742 120.548 290.395 120.627 290.337 C 120.635 290.319 120.649 290.304 120.665 290.294 L 120.665 290.294 Z M 94.527 293.569 C 94.546 293.551 94.856 293.669 95.263 293.804 C 96.192 294.115 97.129 294.399 98.073 294.655 C 98.924 294.889 99.776 295.115 100.63 295.333 C 101.792 295.623 102.762 295.896 102.78 295.896 C 102.917 296.032 104.874 302.29 105.533 304.693 C 105.785 305.603 105.979 306.378 105.96 306.378 C 105.94 306.398 105.726 306.068 105.474 305.622 C 103.207 301.632 99.623 297.582 95.476 294.325 C 94.934 293.938 94.526 293.589 94.526 293.569 L 94.527 293.569 Z M 104.04 296.187 C 104.04 296.225 104.04 296.207 104.06 296.207 C 104.158 296.207 104.584 296.264 105.107 296.38 C 108.4 297.116 114.31 298.24 118.087 298.88 C 118.727 298.977 119.23 299.094 119.23 299.132 C 119.23 299.172 119 299.307 118.708 299.462 C 118.068 299.792 115.491 301.322 114.638 301.902 C 112.488 303.337 110.551 304.885 109.156 306.28 C 108.811 306.626 108.462 306.968 108.109 307.308 C 108.109 307.308 107.994 306.978 107.896 306.571 C 107.199 303.877 105.746 299.887 104.427 297.077 C 104.214 296.632 104.04 296.225 104.04 296.187 L 104.04 296.187 Z M 120.84 299.402 C 120.955 299.442 121.15 300.101 121.537 301.554 C 122.264 304.453 122.577 307.44 122.467 310.427 C 122.427 311.241 122.388 311.997 122.349 312.095 L 122.292 312.286 L 121.285 311.956 C 119.212 311.298 115.841 310.311 112.955 309.497 C 111.307 309.051 109.97 308.645 109.97 308.607 C 109.97 308.49 112.373 306.087 113.4 305.177 C 115.356 303.452 120.664 299.345 120.84 299.402 Z M 122.175 299.597 C 122.233 299.539 130.199 300.913 133.822 301.611 C 136.516 302.134 140.429 302.949 140.662 303.046 C 140.777 303.086 140.371 303.315 139.072 303.898 C 133.957 306.203 130.158 308.278 126.38 310.796 C 125.392 311.456 124.558 311.997 124.54 311.997 C 124.52 311.997 124.501 311.435 124.501 310.757 C 124.501 307.076 123.767 303.356 122.41 300.217 C 122.274 299.907 122.156 299.616 122.175 299.597 L 122.175 299.597 Z M 142.771 303.665 C 142.829 303.722 142.578 305.294 142.345 306.224 C 141.647 309.111 139.769 313.394 137.465 317.424 C 137.056 318.14 136.687 318.721 136.648 318.74 C 136.61 318.76 136.09 318.467 135.488 318.118 C 133.241 316.8 130.682 315.563 127.892 314.4 C 127.117 314.07 126.438 313.799 126.419 313.759 C 126.283 313.644 132.523 309.517 135.816 307.54 C 138.433 305.951 142.695 303.588 142.771 303.665 L 142.771 303.665 Z M 144.246 303.898 C 144.42 303.898 147.946 304.866 149.786 305.409 C 154.34 306.765 159.57 308.684 162.98 310.234 L 164.394 310.872 L 163.408 311.105 C 155.078 313.023 147.945 315.234 141.066 318.023 C 140.504 318.256 140 318.448 139.962 318.448 C 139.923 318.448 140.119 318.004 140.371 317.462 C 142.444 313.063 143.779 308.471 144.109 304.556 C 144.128 304.188 144.188 303.898 144.246 303.898 L 144.246 303.898 Z M 109.136 311.958 C 109.194 311.9 111.887 312.54 113.341 312.947 C 115.551 313.567 120.24 315.137 120.24 315.251 C 120.24 315.271 119.715 315.717 119.095 316.259 C 116.557 318.371 114.115 320.6 111.189 323.429 C 110.318 324.262 109.583 324.939 109.544 324.939 C 109.504 324.939 109.485 324.824 109.504 324.669 C 109.949 321.414 109.854 317.229 109.234 312.986 C 109.174 312.443 109.117 311.977 109.136 311.958 L 109.136 311.958 Z M 165.732 312.017 C 165.77 312.056 164.492 314.069 163.677 315.212 C 162.515 316.879 160.81 319.089 156.955 323.932 C 155.257 326.064 153.565 328.202 151.879 330.345 C 151.104 331.314 150.464 332.128 150.443 332.128 C 150.425 332.128 150.173 331.778 149.902 331.353 C 147.732 328.097 145.135 325.25 142.054 322.693 C 141.585 322.295 141.108 321.907 140.623 321.529 C 140.409 321.374 140.233 321.219 140.233 321.199 C 140.233 321.142 143.527 319.727 146.027 318.72 C 150.407 316.937 156.372 314.807 160.849 313.43 C 163.193 312.695 165.693 311.978 165.732 312.017 L 165.732 312.017 Z M 167.224 312.404 C 167.301 312.384 167.767 312.618 168.328 312.947 C 173.037 315.64 177.648 319.109 181.291 322.673 C 182.318 323.681 184.855 326.314 184.816 326.333 C 184.816 326.333 183.925 326.413 182.879 326.49 C 174.722 327.11 164.279 328.833 154.244 331.255 C 153.564 331.41 152.964 331.546 152.925 331.546 C 152.887 331.546 153.641 330.79 154.591 329.88 C 160.481 324.203 163.174 320.619 166.351 314.224 C 166.797 313.276 167.185 312.462 167.224 312.404 Z M 124.076 316.822 C 124.346 316.88 126.864 318.061 128.763 319.011 C 130.507 319.882 133.124 321.277 133.259 321.394 C 133.279 321.413 132.349 321.897 131.205 322.46 C 127.79 324.158 124.447 326.001 121.187 327.982 C 120.257 328.544 119.483 329.009 119.464 329.009 C 119.386 329.009 119.406 328.931 119.929 327.982 C 121.673 324.805 123.069 321.007 123.863 317.306 C 123.94 317.016 124.018 316.822 124.076 316.822 Z M 121.556 317.286 C 121.614 317.344 120.956 319.728 120.548 321.026 C 119.753 323.486 118.417 326.566 117.118 328.892 C 116.808 329.434 116.343 330.23 116.091 330.675 L 115.607 331.449 L 114.523 330.404 C 113.263 329.184 112.236 328.426 110.919 327.747 C 110.395 327.477 109.989 327.245 109.989 327.207 C 109.989 327.051 113.303 324.048 115.841 321.878 C 117.661 320.308 121.498 317.228 121.556 317.286 L 121.556 317.286 Z M 136.96 323.622 L 137.91 324.242 C 140.08 325.656 142.636 327.537 144.593 329.182 C 145.697 330.092 147.828 332.012 148.255 332.476 L 148.488 332.728 L 146.918 333.175 C 138.044 335.635 131.185 337.824 123.183 340.769 C 122.291 341.099 121.536 341.369 121.478 341.369 C 121.362 341.369 121.265 341.465 123.261 339.624 C 128.376 334.917 132.911 329.726 136.283 324.669 L 136.96 323.622 Z M 132.91 324.63 C 132.95 324.67 130.296 328.407 128.707 330.519 C 126.807 333.038 123.435 337.262 121.109 340.013 C 120.141 341.157 119.309 342.105 119.269 342.124 C 119.211 342.144 119.191 341.854 119.191 341.408 C 119.191 339.064 118.592 336.564 117.546 334.433 C 117.1 333.542 117.023 333.329 117.121 333.232 C 117.489 332.902 123.125 329.687 126.689 327.769 C 129.093 326.489 132.852 324.592 132.909 324.63 L 132.91 324.63 Z M 108.42 330.636 C 108.477 330.636 108.922 330.869 109.427 331.14 C 110.607 331.782 111.722 332.535 112.759 333.388 C 112.799 333.426 112.295 333.834 111.636 334.318 C 109.796 335.635 107.006 337.748 105.378 339.046 C 103.673 340.402 103.615 340.44 103.808 340.15 C 105.088 338.193 105.728 337.088 106.406 335.673 C 107.03 334.357 107.573 333.004 108.033 331.623 C 108.188 331.063 108.38 330.636 108.419 330.636 L 108.42 330.636 Z M 114.95 335.749 C 115.047 335.731 115.163 335.906 115.685 336.681 C 116.789 338.328 117.642 340.538 117.855 342.32 L 117.894 342.706 L 115.24 343.734 C 110.493 345.574 106.114 347.396 103.15 348.754 C 102.067 349.261 100.988 349.777 99.913 350.302 C 98.963 350.786 98.189 351.155 98.189 351.136 C 98.189 351.116 98.789 350.671 99.525 350.128 C 105.319 345.924 110.338 341.312 114.097 336.701 C 114.504 336.217 114.872 335.771 114.91 335.751 L 114.95 335.749 Z M 111.947 336.486 L 111.947 336.488 C 112.025 336.565 109.815 339.064 108.304 340.595 C 104.564 344.411 100.863 347.396 96.271 350.302 C 95.689 350.67 95.167 350.999 95.109 351.037 C 94.974 351.115 95.147 350.921 97.163 348.732 C 98.345 347.464 99.464 346.14 100.515 344.762 C 101.251 343.812 101.386 343.676 102.452 342.922 C 105.302 340.866 111.87 336.409 111.947 336.486 L 111.947 336.486 Z M 137.921 338.786 C 138.195 339.843 138.701 344.912 138.839 348.267 C 138.879 349.062 138.858 349.585 138.818 349.585 C 138.664 349.585 135.545 347.745 133.318 346.349 C 131.388 345.134 127.739 342.715 127.138 342.236 C 130.714 341.029 134.309 339.879 137.921 338.786 L 137.921 338.786 Z M 125.054 342.978 C 125.308 343.088 125.689 343.298 126.458 343.773 C 130.449 346.273 135.876 349.295 138.201 350.303 C 138.917 350.613 138.994 350.496 137.347 351.621 C 133.821 354.023 129.423 356.386 124.037 358.769 C 123.087 359.195 122.292 359.525 122.273 359.525 C 122.233 359.525 122.35 359.039 122.505 358.458 C 123.802 353.633 124.541 348.753 124.58 344.839 C 124.59 343.862 124.594 343.379 124.619 343.132 L 125.054 342.978 L 125.054 342.978 Z M 122.089 344.033 C 122.183 344.509 122.11 348.401 121.962 349.527 C 121.616 352.383 121.02 355.203 120.182 357.955 C 119.968 358.672 119.772 359.274 119.734 359.312 C 119.656 359.409 117.002 356.812 116.13 355.804 C 114.62 354.06 113.438 352.318 112.566 350.613 C 112.162 349.823 111.579 348.408 111.511 348.095 C 114.36 346.938 117.225 345.82 120.103 344.74 C 120.72 344.508 121.446 344.267 122.089 344.033 L 122.089 344.033 Z M 109.486 348.933 C 109.533 349.002 109.649 349.26 109.757 349.585 C 110.377 351.27 111.77 353.75 112.972 355.339 C 114.29 357.083 116.015 358.944 117.449 360.164 C 117.914 360.551 118.339 360.92 118.398 360.978 C 118.514 361.095 118.553 361.075 115.394 362.277 C 111.734 363.672 107.742 365.067 103.169 366.539 C 102.077 366.891 100.985 367.246 99.894 367.605 C 99.719 367.663 99.78 367.565 100.283 366.771 C 102.55 363.227 105.997 356.271 107.935 351.349 C 108.265 350.496 108.594 349.643 108.652 349.449 C 108.679 349.354 108.718 349.299 108.755 349.238 L 109.485 348.933 L 109.486 348.933 Z M 105.476 350.633 C 105.344 351.023 104.503 352.784 103.634 354.486 C 101.754 358.149 99.701 361.753 96.95 366.132 C 96.484 366.887 96.04 367.585 95.98 367.662 C 95.884 367.798 95.845 367.76 95.534 367.16 C 94.875 365.86 94.334 364.195 94.042 362.664 C 93.752 361.153 93.81 358.518 94.14 356.89 C 94.29 356.173 94.356 355.903 94.5 355.73 C 98.113 353.932 101.773 352.233 105.476 350.632 L 105.476 350.633 Z M 138.955 351.833 L 138.955 352.646 C 138.955 356.967 138.49 362.896 137.812 367.216 C 137.696 367.972 137.599 368.593 137.58 368.613 C 137.58 368.613 137.017 368.457 136.359 368.263 C 133.272 367.283 130.287 366.005 127.447 364.447 C 125.567 363.42 122.837 361.733 122.914 361.656 C 122.933 361.636 123.746 361.211 124.694 360.706 C 128.493 358.731 132.135 356.599 135.294 354.486 C 136.476 353.692 138.257 352.415 138.644 352.066 L 138.955 351.833 Z M 90.907 357.57 C 90.981 357.574 90.959 357.733 90.845 358.421 C 90.748 359.108 90.677 359.798 90.632 360.491 C 90.477 363.321 90.942 365.416 92.337 368.283 C 92.725 369.077 93.035 369.736 93.015 369.755 C 92.88 369.872 80.053 373.63 76.023 374.734 C 74.822 375.064 73.776 375.354 73.698 375.373 C 73.562 375.413 73.543 375.394 73.601 375.064 C 74.047 372.216 76.218 368.496 79.241 365.357 C 81.255 363.264 82.863 362.043 85.614 360.474 C 86.535 359.95 87.68 359.311 88.671 358.764 C 89.408 358.363 90.155 357.965 90.907 357.57 L 90.907 357.57 Z M 121.128 362.974 L 121.13 362.974 C 121.15 362.954 121.613 363.206 122.175 363.534 C 126.322 365.938 132.096 368.167 137.017 369.31 L 137.462 369.406 L 136.843 369.756 C 134.267 371.189 125.798 374.716 117.138 377.951 C 115.878 378.416 114.64 378.881 114.408 378.978 C 114.175 379.075 113.96 379.133 113.96 379.113 C 113.96 379.093 114.31 378.415 114.755 377.582 C 117.177 373.048 119.618 367.527 120.859 363.691 C 121.014 363.323 121.109 362.994 121.129 362.974 L 121.128 362.974 Z M 118.048 363.98 L 118.05 363.98 C 118.07 364 117.914 364.408 117.72 364.873 C 116.034 368.961 113.825 373.418 110.996 378.416 C 110.28 379.696 109.679 380.722 109.66 380.722 C 109.64 380.722 109.059 380.372 108.36 379.947 C 104.254 377.427 100.61 374.327 98.228 371.324 L 97.878 370.898 L 99.642 370.414 C 105.958 368.69 111.326 366.83 116.654 364.544 C 117.41 364.234 118.029 363.98 118.048 363.98 L 118.048 363.98 Z M 137.191 370.666 C 137.211 371.112 136.224 375.103 135.41 377.99 C 134.732 380.412 134.15 382.31 133.083 385.662 C 132.619 387.136 132.213 388.355 132.193 388.355 C 132.173 388.355 132.058 388.337 131.941 388.299 C 126.187 387.252 121.033 385.798 116.189 383.861 C 114.833 383.318 112.896 382.446 112.779 382.349 C 112.741 382.31 113.903 381.768 115.376 381.129 C 124.192 377.273 133.336 372.894 136.476 371.015 C 136.844 370.782 137.133 370.665 137.191 370.665 L 137.191 370.666 Z M 92.997 372.176 C 93.037 372.216 90.574 375.761 87.127 380.586 C 85.924 382.272 84.53 384.247 84.007 384.983 C 83.402 385.836 82.814 386.702 82.243 387.579 L 81.429 388.84 L 80.558 388.102 C 79.531 387.249 77.749 385.429 76.954 384.422 C 75.288 382.349 74.163 380.158 73.718 378.162 C 73.504 377.232 73.504 376.768 73.698 376.712 C 77.132 375.891 80.569 375.083 84.008 374.288 C 86.322 373.755 88.634 373.213 90.943 372.661 C 92.067 372.39 92.978 372.176 92.997 372.176 L 92.997 372.176 Z M 95.476 373.126 L 96.097 373.823 C 98.887 376.943 101.734 379.248 105.183 381.263 C 105.803 381.613 106.269 381.922 106.23 381.942 C 106.095 382.038 94.256 386.242 88.773 388.142 C 86.898 388.806 85.018 389.458 83.134 390.098 C 83.115 390.098 82.94 389.981 82.747 389.846 L 82.397 389.594 L 82.96 388.78 C 84.78 386.145 87.067 383.259 92.046 377.252 L 95.476 373.126 Z M 110.939 384.188 C 110.958 384.168 111.809 384.478 112.857 384.868 C 115.376 385.817 117.37 386.418 120.044 387.096 C 123.338 387.929 128.105 388.742 130.916 388.976 C 131.342 389.013 131.573 389.052 131.496 389.11 C 131.36 389.187 128.511 390.138 126.419 390.796 C 123.086 391.843 112.915 394.846 104.622 397.229 C 103.649 397.514 102.674 397.792 101.697 398.063 C 101.503 398.101 100.863 397.925 100.863 397.848 C 100.863 397.81 101.328 397.21 101.89 396.551 C 104.68 393.218 107.451 389.497 109.757 385.971 C 110.397 385.002 110.939 384.207 110.939 384.188 L 110.939 384.188 Z M 107.527 384.286 L 107.529 384.286 C 107.548 384.306 106.172 386.513 103.769 390.311 C 102.743 391.919 101.599 393.743 101.193 394.381 C 100.805 395.001 100.222 395.971 99.893 396.512 L 99.333 397.499 L 99.043 397.423 C 98.344 397.228 93.442 395.504 92.143 394.981 C 90.604 394.368 89.098 393.677 87.63 392.909 C 86.08 392.075 84.143 390.835 84.298 390.796 C 84.336 390.776 86.99 390.06 90.187 389.188 C 98.672 386.882 103.381 385.546 106.462 384.577 C 107.024 384.402 107.508 384.266 107.527 384.286 L 107.527 384.286 Z M 131.65 389.942 L 131.671 389.942 C 131.748 390.137 128.608 398.855 127.464 401.606 C 127.214 402.226 127.116 402.382 126.98 402.362 C 126.65 402.342 122.099 401.705 119.328 401.298 C 114.504 400.562 106.403 399.148 104.37 398.682 L 103.906 398.585 L 106.792 397.926 C 112.992 396.531 115.976 395.776 118.999 394.846 C 122.903 393.651 126.717 392.181 130.412 390.446 C 131.012 390.176 131.514 389.963 131.65 389.944 L 131.65 389.942 Z" style="" id="object-2" transform="matrix(1, 0, 0, 1, 0, 3.552713678800501e-15)"/></svg>