<?xml version="1.0" encoding="utf-8"?>
<svg xmlns="http://www.w3.org/2000/svg" viewBox="240.62 85.299 128 76.796" width="128px" height="76.796px"><path d="M 304.62 85.299 C 287.553 85.299 276.89 93.829 272.62 110.896 C 279.018 102.365 286.487 99.166 295.018 101.299 C 299.889 102.513 303.37 106.045 307.225 109.959 C 313.499 116.326 320.761 123.697 336.62 123.697 C 353.686 123.697 364.35 115.166 368.62 98.095 C 362.221 106.631 354.753 109.83 346.221 107.697 C 341.351 106.482 337.874 102.951 334.014 99.037 C 327.744 92.67 320.484 85.299 304.62 85.299 L 304.62 85.299 Z M 272.62 123.697 C 255.554 123.697 244.89 132.228 240.62 149.299 C 247.018 140.763 254.486 137.564 263.018 139.697 C 267.889 140.912 271.37 144.443 275.225 148.357 C 281.499 154.724 288.761 162.095 304.62 162.095 C 321.686 162.095 332.35 153.565 336.62 136.498 C 330.221 145.029 322.753 148.228 314.221 146.095 C 309.351 144.881 305.874 141.349 302.014 137.435 C 295.744 131.068 288.484 123.697 272.62 123.697 Z M 272.62 123.697" style="" id="object-0" transform="matrix(1, 0, 0, 1, 0, 3.552713678800501e-15)"/></svg>