<?xml version="1.0" encoding="utf-8"?>
<svg xmlns="http://www.w3.org/2000/svg" viewBox="125.193 289.599 125 125" width="125px" height="125px"><path d="M 125.193 352.099 L 125.193 414.599 L 250.193 414.599 L 250.193 289.599 L 125.193 289.599 L 125.193 352.099 Z M 225.923 347.099 C 228.917 347.793 231.638 349.359 233.743 351.599 C 234.902 352.805 235.909 354.148 236.743 355.599 C 236.743 355.759 231.343 359.409 228.053 361.449 C 227.933 361.529 227.453 361.009 226.923 360.219 C 225.702 358.112 223.486 356.779 221.053 356.689 C 217.263 356.429 214.823 358.419 214.843 361.689 C 214.811 362.503 214.998 363.311 215.383 364.029 C 216.213 365.759 217.763 366.789 222.623 368.889 C 231.573 372.739 235.403 375.279 237.783 378.889 C 240.443 382.889 241.033 389.349 239.233 394.129 C 237.233 399.329 232.333 402.859 225.403 404.029 C 222.238 404.391 219.04 404.358 215.883 403.929 C 211.065 403.147 206.621 400.853 203.193 397.379 C 202.043 396.109 199.803 392.799 199.943 392.559 C 200.308 392.288 200.692 392.044 201.093 391.829 L 205.693 389.189 L 209.283 387.109 L 210.033 388.219 C 211.299 390.029 212.909 391.572 214.773 392.759 C 218.773 394.859 224.233 394.569 226.933 392.139 C 228.803 390.301 229.094 387.389 227.623 385.219 C 226.623 383.829 224.623 382.659 219.033 380.219 C 212.583 377.439 209.803 375.719 207.263 372.979 C 205.677 371.171 204.506 369.037 203.833 366.729 C 203.33 364.091 203.256 361.39 203.613 358.729 C 204.943 352.499 209.613 348.149 216.433 346.859 C 219.591 346.468 222.791 346.555 225.923 347.119 L 225.923 347.099 Z M 196.583 352.339 L 196.583 357.459 L 180.353 357.459 L 180.353 403.689 L 168.843 403.689 L 168.843 357.449 L 152.573 357.449 L 152.573 352.449 C 152.529 350.727 152.576 349.005 152.713 347.289 C 152.773 347.209 162.713 347.169 174.713 347.189 L 196.523 347.189 L 196.583 352.339 Z" style="" id="object-2" transform="matrix(1, 0, 0, 1, 0, 3.552713678800501e-15)"/></svg>