<?xml version="1.0" encoding="utf-8"?>
<svg xmlns="http://www.w3.org/2000/svg" viewBox="346.642 40.082 128 127.2452" width="128px" height="127.245px" preserveAspectRatio="none"><path d="M 440.787 40.082 C 440.598 40.099 440.41 40.123 440.224 40.154 C 439.914 40.145 439.604 40.154 439.296 40.181 C 438.964 40.232 438.636 40.304 438.314 40.396 C 438.129 40.414 437.944 40.438 437.761 40.468 C 437.48 40.581 437.205 40.711 436.939 40.855 C 436.774 40.926 436.612 41.002 436.453 41.084 C 435.79 41.436 435.181 41.88 434.642 42.402 L 392.128 89.408 L 367.308 69.068 L 365.136 67.203 C 364.875 67.025 364.598 66.87 364.31 66.74 C 364.137 66.63 363.959 66.53 363.775 66.44 C 363.578 66.352 363.376 66.276 363.171 66.213 C 362.959 66.15 362.744 66.1 362.527 66.063 C 362.359 66.049 362.191 66.044 362.023 66.046 C 361.854 66.013 361.684 65.988 361.513 65.972 C 361.424 65.99 361.335 66.01 361.247 66.032 C 361.175 66.03 361.104 66.029 361.033 66.029 C 360.957 66.047 360.881 66.067 360.806 66.089 C 360.644 66.084 360.483 66.086 360.322 66.095 C 360.078 66.149 359.841 66.229 359.615 66.335 L 349.921 70.402 C 349.383 70.636 348.888 70.957 348.455 71.352 C 348.382 71.409 348.31 71.468 348.24 71.529 C 348.159 71.63 348.083 71.734 348.01 71.841 C 347.767 72.112 347.552 72.407 347.37 72.721 C 347.273 72.875 347.184 73.034 347.103 73.197 C 347.07 73.288 347.04 73.38 347.013 73.472 C 346.909 73.767 346.831 74.071 346.781 74.38 C 346.726 74.55 346.679 74.722 346.642 74.896 L 346.642 132.576 C 346.68 132.749 346.726 132.92 346.781 133.088 C 346.831 133.399 346.909 133.705 347.013 134.002 C 347.04 134.093 347.07 134.184 347.103 134.273 C 347.184 134.437 347.273 134.596 347.371 134.75 C 347.553 135.064 347.767 135.359 348.009 135.629 C 348.082 135.736 348.158 135.84 348.239 135.941 C 348.309 136.002 348.381 136.062 348.455 136.119 C 348.888 136.514 349.383 136.834 349.921 137.068 L 359.615 141.134 C 360.162 141.351 360.742 141.476 361.331 141.504 C 361.501 141.509 361.671 141.506 361.841 141.494 C 362.271 141.48 362.698 141.413 363.113 141.296 C 363.285 141.253 363.455 141.202 363.623 141.142 C 364.172 140.936 364.683 140.641 365.136 140.269 L 367.308 138.402 L 392.128 118.062 L 434.642 165.068 C 435.204 165.622 435.845 166.089 436.544 166.455 C 436.742 166.54 436.943 166.617 437.148 166.685 C 437.15 166.686 437.152 166.686 437.154 166.687 C 437.585 166.899 438.034 167.072 438.496 167.203 C 438.576 167.209 438.657 167.213 438.738 167.216 C 439.253 167.296 439.775 167.326 440.296 167.304 C 440.625 167.329 440.956 167.334 441.286 167.318 C 442.135 167.216 442.962 166.979 443.736 166.615 L 470.109 153.935 C 470.303 153.841 470.494 153.739 470.681 153.629 C 470.738 153.594 470.794 153.559 470.851 153.523 C 470.981 153.443 471.108 153.36 471.234 153.273 C 471.295 153.229 471.355 153.184 471.415 153.138 C 471.527 153.055 471.637 152.969 471.745 152.88 C 471.814 152.824 471.882 152.766 471.949 152.707 C 472.043 152.623 472.135 152.536 472.226 152.447 C 472.29 152.385 472.353 152.321 472.416 152.257 C 472.513 152.155 472.607 152.05 472.699 151.943 C 472.747 151.888 472.795 151.833 472.843 151.777 C 472.935 151.662 473.023 151.545 473.109 151.425 C 473.157 151.361 473.204 151.297 473.251 151.232 C 473.368 151.06 473.478 150.883 473.581 150.702 C 473.611 150.646 473.641 150.589 473.671 150.532 C 473.741 150.405 473.808 150.277 473.871 150.146 C 473.91 150.061 473.948 149.976 473.984 149.89 C 474.038 149.765 474.088 149.639 474.136 149.511 C 474.162 149.44 474.187 149.368 474.212 149.296 C 474.253 149.175 474.292 149.052 474.328 148.929 C 474.357 148.828 474.384 148.727 474.41 148.625 C 474.436 148.512 474.46 148.398 474.482 148.283 C 474.501 148.192 474.519 148.101 474.535 148.009 C 474.557 147.866 474.576 147.722 474.591 147.578 C 474.599 147.518 474.606 147.458 474.613 147.398 C 474.613 147.39 474.614 147.383 474.615 147.375 C 474.633 147.158 474.642 146.94 474.642 146.722 L 474.642 60.761 C 474.642 60.757 474.642 60.754 474.642 60.75 C 474.642 60.531 474.633 60.313 474.615 60.095 C 474.609 60.042 474.603 59.99 474.597 59.937 C 474.58 59.767 474.558 59.598 474.531 59.429 C 474.52 59.372 474.509 59.316 474.497 59.259 C 474.469 59.111 474.438 58.963 474.402 58.816 C 474.379 58.726 474.355 58.637 474.329 58.548 C 474.297 58.437 474.262 58.327 474.226 58.218 C 474.194 58.119 474.16 58.021 474.124 57.923 C 474.079 57.807 474.032 57.692 473.982 57.578 C 473.95 57.5 473.916 57.422 473.882 57.345 C 473.816 57.208 473.746 57.074 473.673 56.941 C 473.639 56.876 473.605 56.811 473.57 56.746 C 473.466 56.566 473.355 56.39 473.238 56.218 C 473.203 56.171 473.168 56.124 473.132 56.078 C 473.043 55.952 472.951 55.829 472.855 55.708 C 472.793 55.635 472.731 55.563 472.667 55.492 C 472.587 55.399 472.505 55.307 472.421 55.218 C 472.357 55.153 472.293 55.088 472.228 55.025 C 472.136 54.936 472.043 54.848 471.948 54.763 C 471.881 54.704 471.814 54.646 471.746 54.589 C 471.638 54.501 471.528 54.415 471.416 54.332 C 471.356 54.286 471.295 54.241 471.234 54.197 C 471.108 54.11 470.981 54.027 470.851 53.947 C 470.794 53.911 470.738 53.876 470.681 53.841 C 470.494 53.731 470.303 53.629 470.109 53.535 L 443.736 40.854 C 442.995 40.501 442.205 40.263 441.392 40.15 C 441.278 40.148 441.164 40.149 441.05 40.152 C 440.962 40.127 440.875 40.104 440.787 40.082 Z M 442.642 76.642 L 442.642 130.828 L 409.589 103.736 L 442.642 76.642 Z M 362.642 85.462 L 379.169 103.736 L 362.642 122.009 L 362.642 85.464 L 362.642 85.462 Z" style="" id="object-2" transform="matrix(1, 0, 0, 1, 0, 3.552713678800501e-15)"/></svg>